<?xml version="1.0" encoding="UTF-8"?>
<svg id="Layer_1" xmlns="http://www.w3.org/2000/svg" xmlns:xlink="http://www.w3.org/1999/xlink" version="1.1" viewBox="0 0 4050 2700">
  <!-- Generator: Adobe Illustrator 29.7.1, SVG Export Plug-In . SVG Version: 2.1.1 Build 8)  -->
  <defs>
    <style>
      .st0, .st1, .st2 {
        fill: none;
      }

      .st3 {
        mask: url(#mask);
      }

      .st4, .st5 {
        fill: #00bdb6;
      }

      .st6, .st7 {
        fill: #f78b59;
      }

      .st8 {
        fill: #5f3528;
      }

      .st9 {
        fill: #332722;
      }

      .st10 {
        fill: #4e5157;
      }

      .st11 {
        fill: #34221c;
      }

      .st12 {
        fill: #231f20;
      }

      .st13 {
        fill: #c37a44;
      }

      .st14 {
        fill: #0d1217;
      }

      .st15 {
        fill: #272a2d;
      }

      .st16 {
        fill: #1d2957;
      }

      .st17 {
        fill: #e5dcd3;
      }

      .st18 {
        isolation: isolate;
      }

      .st1 {
        stroke: #aeb2b8;
        stroke-width: 9px;
      }

      .st1, .st2 {
        stroke-miterlimit: 10;
      }

      .st19 {
        fill: #253065;
      }

      .st20 {
        fill: #16191c;
      }

      .st21 {
        clip-path: url(#clippath-1);
      }

      .st22 {
        clip-path: url(#clippath-3);
      }

      .st23 {
        clip-path: url(#clippath-4);
      }

      .st24 {
        clip-path: url(#clippath-2);
      }

      .st25 {
        clip-path: url(#clippath-6);
      }

      .st26 {
        clip-path: url(#clippath-5);
      }

      .st7, .st5 {
        fill-rule: evenodd;
      }

      .st27, .st28 {
        fill: #212529;
      }

      .st29 {
        fill: #8128e7;
      }

      .st30, .st31 {
        fill: #fff;
      }

      .st2 {
        stroke: #4e5157;
        stroke-width: 14.3px;
      }

      .st32 {
        fill: #77503d;
      }

      .st33 {
        fill: #4b5057;
      }

      .st28 {
        stroke: #4b5057;
      }

      .st28, .st31 {
        stroke-miterlimit: 10;
        stroke-width: 2.9px;
      }

      .st34 {
        fill: #f49e06;
      }

      .st35 {
        fill: #e8e2d8;
      }

      .st36 {
        fill: #cfd1d2;
      }

      .st37 {
        fill: #d7b38f;
      }

      .st38 {
        opacity: .4;
      }

      .st39 {
        fill: #ededef;
      }

      .st40 {
        fill: #5e3c2e;
      }

      .st41 {
        fill: #4c4e77;
      }

      .st31 {
        stroke: #afb4bb;
      }

      .st42 {
        fill: #d8ac8d;
      }

      .st43 {
        fill: #723f26;
      }

      .st44 {
        fill: #b96e45;
      }

      .st45 {
        fill: #bf7777;
      }

      .st46 {
        fill: #cea989;
      }

      .st47 {
        clip-path: url(#clippath);
      }

      .st48 {
        fill: #facb2e;
      }
    </style>
    <mask id="mask" x="-606.2" y="-34.5" width="5197.8" height="3767.4" maskUnits="userSpaceOnUse">
      <rect class="st30" width="4050" height="2700"/>
    </mask>
    <clipPath id="clippath">
      <rect class="st0" x="-32.7" y="888.4" width="4116.4" height="1843.2"/>
    </clipPath>
    <clipPath id="clippath-1">
      <rect class="st0" x="2118" y="305.3" width="1693.2" height="2679.1"/>
    </clipPath>
    <clipPath id="clippath-2">
      <rect class="st0" x="2118" y="305.3" width="1693.2" height="2679.1"/>
    </clipPath>
    <clipPath id="clippath-3">
      <rect class="st0" x="2656.8" y="489.8" width="35.6" height="35.6"/>
    </clipPath>
    <clipPath id="clippath-4">
      <path class="st0" d="M2316.7,1827.3l538.9,23.3,45.1-543.1-22.2-434-155.8-270.6-100-23-48.1-4.3-106.8,31.8-45.8,129.7v136.5l-40.2,58.3-49.5,78.7-27.8,14.4-44,69.2s-19.2,9.4-18.1,12,11.2,26.2,11.2,26.2c0,0,18.2,32.4,20.7,32.7s104.1,11.1,104.1,11.1l17-11.1-37.9,207.6-40.7,454.7h0Z"/>
    </clipPath>
    <clipPath id="clippath-5">
      <rect class="st0" x="2146.5" y="605.6" width="771.3" height="1554.7" transform="translate(-202 461.7) rotate(-10)"/>
    </clipPath>
    <clipPath id="clippath-6">
      <circle class="st0" cx="764" cy="1856.2" r="90.6" transform="translate(-741 528) rotate(-26.2)"/>
    </clipPath>
  </defs>
  <g class="st3">
    <g>
      <rect class="st16" x="-33.1" y="-34.5" width="4101.2" height="2761.3"/>
      <g>
        <g>
          <rect class="st4" x="263.4" y="1027.8" width="1591.9" height="260.9" rx="47.6" ry="47.6"/>
          <g class="st18">
            <g class="st18">
              <path class="st12" d="M308.5,1085.2h29.3l25.3,74.9,28.8-74.9h14.5l28.8,74.9,25.3-74.9h29.3l-45.7,133.4h-11.8l-33.1-86.1-33.1,86.1h-11.8l-45.7-133.4Z"/>
            </g>
            <g class="st18">
              <path class="st12" d="M482.6,1171.5c0-28.2,23.4-49.7,51.6-49.7s51.6,21.5,51.6,49.7-23.4,49.7-51.6,49.7-51.6-21.5-51.6-49.7ZM560.7,1171.5c0-15.8-12.2-26.5-26.5-26.5s-26.5,10.7-26.5,26.5,12.2,26.5,26.5,26.5,26.5-10.7,26.5-26.5Z"/>
            </g>
            <g class="st18">
              <path class="st12" d="M603,1124.4h25.1v9.3c5.9-7.6,15-12,24.2-12s11.2,1.5,15.2,4.4l1.7,26.5h-3.6c-3.8-4.6-10.1-7.6-16.6-7.6-10.9,0-21,6.7-21,22.3v51.2h-25.1v-94.1Z"/>
            </g>
            <g class="st18">
              <path class="st12" d="M677.1,1171.5c0-31.6,21-49.7,46.7-49.7s23.1,3.8,29.9,11.6v-52h25.1v137.2h-25.1v-9.9c-6.7,7.4-16.4,12.6-30.3,12.6-26.7,0-46.3-20.6-46.3-49.7ZM754.8,1171.5c0-15.2-10.7-26.5-26.3-26.5s-26.3,11.2-26.3,26.5,10.7,26.5,26.3,26.5,26.3-11.2,26.3-26.5Z"/>
              <path class="st12" d="M837.9,1171.5c0-28.2,23.4-49.7,51.6-49.7s51.6,21.5,51.6,49.7-23.4,49.7-51.6,49.7-51.6-21.5-51.6-49.7ZM916,1171.5c0-15.8-12.2-26.5-26.5-26.5s-26.5,10.7-26.5,26.5,12.2,26.5,26.5,26.5,26.5-10.7,26.5-26.5Z"/>
              <path class="st12" d="M965,1145.7h-10.5v-21.3h10.5v-10.3c0-22.9,17-31.6,31.2-31.6s11.6,1.3,16.6,4l1,22.1h-2.3c-3.4-3.4-8.4-5-11.8-5-5.7,0-9.5,3.6-9.5,10.1v10.7h15.2v21.3h-15.2v72.8h-25.1v-72.8Z"/>
              <path class="st12" d="M1075.8,1189.6v-43.8h-15.6v-21.3h15.6v-15.6l25.1-11.4v27.1h25.5v21.3h-25.5v42.7c0,8.4,4.6,11.6,10.3,11.6s8.4-1,14.5-5.5h2.9l-1.7,21.9c-8,3.6-12.2,4.8-21.7,4.8-14.9,0-29.3-9.3-29.3-31.6Z"/>
              <path class="st12" d="M1145,1081.3h25.1v54.7c6.7-8.6,19.2-14.3,31.6-14.3,20.2,0,34.3,10.7,34.3,32.6v64.2h-25.1v-55.2c0-12.6-7.2-18.3-17.9-18.3s-22.9,9.3-22.9,25v48.6h-25.1v-137.2Z"/>
              <path class="st12" d="M1252.1,1170.7c0-27.6,20.8-49,49.7-49s46.5,23.6,46.5,49v7.4h-72.2c3,14.3,13.3,21.7,29.7,21.7s22.3-3,33-12.4h2.7l-1,23.8c-12,7-25.5,9.9-36.4,9.9-30.1,0-52-21.9-52-50.5ZM1323.1,1161c-1.3-11.6-10.5-18.3-22.3-18.3s-21,6.1-24.2,18.3h46.5Z"/>
            </g>
            <g class="st18">
              <path class="st12" d="M1441.6,1162.1l-42.3-77h29.9l25.9,51.2,25.9-51.2h29.9l-42.3,77v56.4h-27.1v-56.4Z"/>
            </g>
            <g class="st18">
              <path class="st12" d="M1496.5,1170.7c0-27.6,20.8-49,49.7-49s46.5,23.6,46.5,49v7.4h-72.2c3,14.3,13.3,21.7,29.7,21.7s22.3-3,33-12.4h2.7l-1,23.8c-12,7-25.5,9.9-36.4,9.9-30.1,0-52-21.9-52-50.5ZM1567.5,1161c-1.3-11.6-10.5-18.3-22.3-18.3s-21,6.1-24.2,18.3h46.5Z"/>
              <path class="st12" d="M1605.3,1171.5c0-27.4,21-49.7,47.2-49.7s22.9,4.6,28.2,11.2v-8.6h25.1v94.1h-25.1v-8.6c-6.9,6.5-14.7,11.2-29.7,11.2-22.5,0-45.7-18.7-45.7-49.7ZM1681.9,1171.5c0-14.5-9.7-26.5-25.7-26.5s-25.7,12-25.7,26.5,9.7,26.5,25.7,26.5,25.7-12,25.7-26.5Z"/>
              <path class="st12" d="M1728,1124.4h25.1v9.3c5.9-7.6,15-12,24.2-12s11.2,1.5,15.2,4.4l1.7,26.5h-3.6c-3.8-4.6-10.1-7.6-16.6-7.6-10.9,0-21,6.7-21,22.3v51.2h-25.1v-94.1Z"/>
            </g>
          </g>
        </g>
        <g class="st18">
          <g class="st18">
            <path class="st30" d="M267,840.7l193.1-242c26.3-33.4,39-61,39-93.7s-28.4-71.7-74.5-71.7-95.1,35.5-122.1,77.4h-10.6l5.7-107.9c34.8-34.8,87.3-54.7,137.7-54.7,103.6,0,160.4,56.8,160.4,144.8s-19.9,102.2-67.4,159.7l-97.2,117.1h180.3v85.2h-344.2v-14.2Z"/>
          </g>
          <g class="st18">
            <path class="st30" d="M651.7,606.5c0-148.3,84.5-258.4,219.3-258.4s219.3,110,219.3,258.4-84.5,258.4-219.3,258.4-219.3-110-219.3-258.4ZM989.6,606.5c0-107.2-39-171.8-118.5-171.8s-118.5,64.6-118.5,171.8,39,171.8,118.5,171.8,118.5-64.6,118.5-171.8Z"/>
          </g>
          <g class="st18">
            <path class="st30" d="M1115.9,840.7l193.1-242c26.3-33.4,39-61,39-93.7s-28.4-71.7-74.5-71.7-95.1,35.5-122.1,77.4h-10.6l5.7-107.9c34.8-34.8,87.3-54.7,137.7-54.7,103.6,0,160.4,56.8,160.4,144.8s-19.9,102.2-67.4,159.7l-97.2,117.1h180.3v85.2h-344.2v-14.2Z"/>
            <path class="st30" d="M1539.6,844.3l-21.3-111.4h9.2c39.7,29.8,86.6,46.8,133.4,46.8s102.2-27.7,102.2-88.7-37.6-90.1-97.2-90.1-85.9,15.6-122.1,33.4l-22.7-3.5,31.9-272.6h285.3v85.2h-209.4l-14.9,90.1c22.7-9.2,48.3-14.2,73.8-14.2,112.9,0,171.8,62.5,171.8,168.2s-84.5,177.4-189.5,177.4-82.3-6.4-130.6-20.6Z"/>
          </g>
        </g>
      </g>
      <g class="st47">
        <path class="st4" d="M-571.1,2413.1s1008.4-744.3,2508-144.4,2643.2-987.6,2616.3-1734.8l38.4-286.7-321,3485.8-4876.8-449.1,35.1-870.6h0Z"/>
      </g>
      <g>
        <g id="Group_54">
          <g class="st21">
            <g id="Group_53">
              <g id="Group_52">
                <g class="st24">
                  <g id="Group_51">
                    <path id="Path_106" class="st46" d="M2747.1,2883.5c-.8,3.2-1.4,6.5-1.7,9.9,1.9,11.5-159.3,23.2-139.2-3.6h0c7.7-3.1,14.5-6,19.7-8.3.4-.2.7-.3,1.1-.5,5-2.7,5.7-6,7.3-14,1.6-8.4,3.8-35,3.8-35l59.2-544.3,192.5,14.9s-86.6,344.4-125.7,507.4c-4.9,20.6-9.1,38.3-12.3,52h0c-2,8.9-3.7,16.2-4.8,21.5h0,0Z"/>
                    <path id="Path_109" class="st46" d="M3128.6,2297.3s47.8,360.9,68.6,516.3c2.4,18.3,4.5,33.7,6.1,45.4,2,15,3.2,23.8,3.4,24.5h0c.8,3.2,1.4,6.5,1.7,9.9-1.9,11.5,159.3,23.2,139.2-3.6h0c-7.7-3.1-14.5-6-19.7-8.3-.4-.2-.7-.3-1.1-.5-5-2.7-5.7-6-7.3-14-.2-1.2,0-13.4.4-33.5,0-.9,0-1.9,0-2.8,2.9-128.1,16.2-549.9,16.2-549.9l-207.5,16.6h0Z"/>
                    <path id="Path_112" class="st29" d="M2577.7,2832h235.8l189.3-763.6,61.3-247.1,78,1012.3h233.8s-8.8-879.8-29.7-1095.3c-14.6-151-84.3-333.6-84.3-333.6-116.8-15.4-294.4,12.8-415.2,29.2-5.1.7-10.2,1.4-15.1,2l-19.9,109.1-234.1,1286.8h0Z"/>
                    <path id="Path_113" class="st9" d="M3002.8,2068.4l61.3-247.1-38.2-14.9-23.1,262h0Z"/>
                    <path id="Path_114" class="st37" d="M3636.1,567.6c4.6-23.8,16.4-39.5,17-67.2.6-30.6,3.3-36.2,11.7-32.6,18.2,7.8,3.4,53.4,19.9,59.4,8-.9,22.5-20.6,31.1-35.5,10.3-17.8,25.9-76.6,36.9-70.9,9.2,4.8-1.1,48-6.9,61.6,6.2-14.1,26-78.7,38.9-67.2,9.5,8.4-19.6,79.6-23.7,88.9,2.2-4.4,27.6-73.8,36.6-64.6,10.4,10.6-17.3,71-21.4,80.3,2.8-5.6,22.9-65.8,33.6-53.8,6.6,7.4-13.2,65.5-17.3,74.9-18.1,41.3-108.4,124.8-120.3,133.4l-55.6-24.2s14.5-25.9,17.2-40.1c3.4-17.8.4-33.4,2.2-42.3"/>
                    <path id="Path_115" class="st4" d="M3705.3,668.3c18.9-34.4-77.4-73.4-86.3-50.2-16,41.4-78.1,64.6-117.1,102.7-52.4,51.2-89.6,66.6-150.5,81-68.6,16.2-152.7-38.8-282.6,6.7-14.1-4-66-52.4-152.6-55.2-81.2-2.6-173.8-47.2-256.1-49.7-118.9-3.6-206.9,59.7-269,121.6-15.9,15.8,42.7,91.4,78.4,80.6,58.1-17.5,136.5-15.3,169.4-10.5,65.2,9.4,205.4,2.3,217,190.3,5.5,89.7-90.5,515.4-54.5,523.9l543.9-3.4c29.7-25.9-39.1-326.7-25.9-411.8,20.1-129.1,190-196.1,238.3-233.8,87.7-68.5,106.2-216.9,147.6-292.3"/>
                    <path id="Path_116" class="st15" d="M2785.4,2015.1l-476.1-21.8c-81.9-3.8-145.3-73.2-141.6-155.2l59.6-1264.2c3.8-82,73.2-145.3,155.2-141.6h0l476.1,21.8c81.9,3.8,145.3,73.2,141.6,155.2l-59.6,1264.2c-3.8,81.9-73.2,145.3-155.2,141.6"/>
                    <path id="Path_117" class="st2" d="M2785.4,2015.1l-476.1-21.8c-81.9-3.8-145.3-73.2-141.6-155.2l59.6-1264.2c3.8-82,73.2-145.3,155.2-141.6h0l476.1,21.8c81.9,3.8,145.3,73.2,141.6,155.2l-59.6,1264.2c-3.8,81.9-73.2,145.3-155.2,141.6h0Z"/>
                    <path id="Path_118" class="st20" d="M2675.2,530.5l-117.1-5.4c-12.2-.7-21.5-11.1-20.9-23.2.6-12.1,10.9-21.4,22.9-20.9l117.1,5.4c12.2.6,21.5,11.1,20.9,23.2-.6,12.1-10.9,21.4-22.9,20.9"/>
                    <path id="Path_119" class="st30" d="M2241.9,1827.4l633,29c13.6.6,25.2-9.9,25.8-23.6l54.3-1226.3c.6-13.6-9.9-25.2-23.6-25.8l-527.4-24.2-105.7-4.8c-13.6-.6-25.2,9.9-25.8,23.6l-54.3,1226.3c-.6,13.6,9.9,25.2,23.6,25.8"/>
                    <path id="Path_120" class="st1" d="M2241.9,1827.4l633,29c13.6.6,25.2-9.9,25.8-23.6l54.3-1226.3c.6-13.6-9.9-25.2-23.6-25.8l-633-29c-13.6-.6-25.2,9.9-25.8,23.6l-54.3,1226.3c-.6,13.6,9.9,25.2,23.6,25.8h0Z"/>
                    <g id="Group_50" class="st38">
                      <g id="Group_49">
                        <g class="st22">
                          <g id="Group_48">
                            <path id="Path_121" class="st10" d="M2692.3,508.4c-.4,9.8-8.8,17.4-18.6,17s-17.4-8.8-17-18.6c.4-9.8,8.8-17.4,18.6-17h0c9.8.5,17.4,8.8,17,18.6h0"/>
                            <path id="Path_122" class="st15" d="M2688.3,508c-.3,7.3-6.6,13-13.9,12.7-7.3-.3-13-6.6-12.7-13.9.3-7.3,6.6-13,13.9-12.7h0c7.3.3,13,6.6,12.7,13.9"/>
                            <path id="Path_123" class="st20" d="M2684.5,507.7c-.2,5.2-4.6,9.2-9.8,8.9-5.2-.2-9.2-4.6-8.9-9.8.2-5.2,4.6-9.2,9.8-8.9h0c5.2.2,9.2,4.6,8.9,9.8"/>
                          </g>
                        </g>
                      </g>
                    </g>
                    <path id="Path_124" class="st6" d="M3230.1,681.4c0,0,41.6-86.7,29.9-143.4-5.1-28.1-23.9-51.8-50.2-63-9.1-69.7-76.1-60.1-101.5-63.5-20.6-2.7-46.4-36.6-71.4-33.6-29.8,3.5-21.4,29.8-73.2,31.8-53.1,2-28.4,48.8-51.8,65.7,0,0,35.9,5.7,43.6,20.5,20.8,40.2,22.5,55.6,53.6,19.7,8.6-9.9,98.3,180.9,106.6,231.2,3.4,20.5,12.5,61.7,29.6,56.5,1.2,1.8,39.9,28.2,60.9-4,7.3-11.2,6.5-29.5-3.7-48.3,8.9,3.9,28.9,4.5,37-6.7,17.1-23.6-18.4-45-9.2-62.8"/>
                    <path id="Path_125" class="st46" d="M3171.5,687.8l-18,160.9c-21.3,58.1-143.4,53.6-139.9,3.5l8.4-80,149.5-84.4h0Z"/>
                    <path id="Path_126" class="st37" d="M3152.1,728.6c-21.1,57.9-93.2,100.4-148,91.1-63.1-10.7-85.4-97.2-87.3-106.3-3.1-16-1.8-32.6,3.8-48,1.8-5.1,3.1-10.4,4.1-15.7.1-.7.2-1.3.3-2,1.4-8.2,2-16.5,1.8-24.9-.2-8.8-.2-18,0-25.1.6-32.8,5.6-72.1,24.1-81.4,28.2-16.8,232.4-94.1,240.9,82.6.5,11.2-14.4,24.6-22.8,50.3,56-15.4,33.9,91.7-16.8,79.5"/>
                    <path id="Path_127" class="st42" d="M3162.1,689.4c-3.7,9.6-2.6,19,2.4,21,5,1.9,12.1-4.3,15.8-14,3.7-9.6,2.6-19-2.4-21-5-1.9-12.1,4.3-15.8,14"/>
                    <path id="Path_128" class="st19" d="M3045.9,647.6s14.6,25.6,62.1-1.8c5.9-3.4-21.8,5.7-37.8,6.5-16.6.9-28.2-10.2-24.3-4.7"/>
                    <path id="Path_129" class="st19" d="M2933.5,627.6c2.6,8,39.3,29.8,53.3,10.2,4-5.6-13.2,6.9-28.9,1.3-15.6-5.5-25.9-15.9-24.4-11.5"/>
                    <path id="Path_130" class="st45" d="M3015.7,707.7c-10.9-.1-27.5-3.6-29.6-16.7-.2-5.5,1.6-10.8,5.1-15.1,7.3-12,13.9-23,14.2-37.5,0-1.9,3-2.2,3-.3-.9,13.2-5.3,25.8-12.9,36.6-4.2,6.9-9.1,12.9-3.7,20.9,4.9,7.3,15.5,9,23.7,9.1,1.9,0,2.2,3,.3,3"/>
                    <path id="Path_131" class="st30" d="M3055.3,730.1c3.4-6.6-43.3,10.2-87-8.3-17.4-7.4,29.4,81.8,87,8.3"/>
                    <path id="Path_132" class="st6" d="M2999,545.9c-25.5-40-88.6,66.6-127.3.2-18-30.8,2.8-52.1,35.7-68.9,91.8-46.8,302.7-51.6,311.9,113.3,2.4,42.1-48.1,38-62.5,91.8-6.7-1.5-19.9,6.9-19.5-27.4.4-38.8,14-107.6-27.7-106-36.3,1.4-86.9,34.1-110.7-3.1"/>
                    <path id="Path_133" class="st37" d="M2198.8,805.7c24-3.1,42.6,3.1,69.1-5.1,29.2-9,35.4-8.3,34.6.9-1.7,19.7-49.6,20.1-50.1,37.6,13.6,7.9,28.3,14.1,43.5,18.3,20.1,4.2,80.8.5,78.9,12.6-1.6,10.2-45.8,14.1-60.6,12.9,15.3,1.4,82.9-.2,76.1,15.8-5,11.7-81.7,6.5-91.9,5.6,4.9.7,78.7,3,72.9,14.4-6.8,13.2-72.8,6-83,5,6.2.9,69.7,1,61.7,14.9-4.9,8.6-66.4,8.1-76.5,7.2-44.9-4.1-122-54.8-133.9-63.3l3.1-65.7s.9,2.1,15.3.2c17.9-2.4,31.8-10.1,40.9-11.3"/>
                    <path id="Path_134" class="st4" d="M2209.3,805.2s-56.6,5.7-55,42.9,1.6,45.1,1.6,45.1c0,0-40.1,5.6-37.7-35.6s10.3-88.4,93-93.7"/>
                  </g>
                </g>
              </g>
            </g>
          </g>
        </g>
        <g class="st23">
          <g id="Mask_Group_5175">
            <g id="Group_5221">
              <g class="st26">
                <g id="Group_5220">
                  <path id="Path_3763" class="st44" d="M2600.2,911.6c-6.3-1.3-12-4.4-16.4-9-2.8-3.3-5.4-6.8-7.8-10.5-2.8-4-6.5-7.5-10.7-10-9.9-3-19.5,24.2-19.5,24.2l50.3,23.8,4.1-18.6h0Z"/>
                  <path id="Path_3764" class="st32" d="M2600.5,871.4s3.6,20.2-1.9,31.5c-5.4,11.4-26.6,9.2-26.6,9.2l13.8,52.5,147.8-12.7-4.9-11s-25.4-8.9-33.9-23.7c-8.6-14.8-17.2-63.8-17.2-63.8l-77.1,18.1h0Z"/>
                  <path id="Path_3765" class="st8" d="M2682.5,877.6c-7.4,14.1-20.3,24.5-35.7,28.7-20.7,4.8-38.1-10.9-45.2-18.6.1-5.5-.3-10.9-1.1-16.3l77.1-18.1s2,11.1,4.9,24.3"/>
                  <path id="Path_3766" class="st32" d="M2690.2,681.3s38.7,116.6-1.4,172.9c-37.8,53.1-94.7,36.4-119.1-2.3-24.4-38.7-53.2-138.1-53.2-138.1l73-59.3,100.7,26.8Z"/>
                  <path id="Path_3767" class="st32" d="M2697.5,742.2s30-20.4,31.1,17.9-16.3,46.2-25.3,40.6-5.8-58.4-5.8-58.4"/>
                  <path id="Path_3768" class="st32" d="M2542.4,776.2s-35.9-5.2-20.1,29.7c15.8,34.9,34.9,34.3,40.6,25.3,5.6-9-20.4-55-20.4-55"/>
                  <path id="Path_3769" class="st40" d="M2705,757.9s1.6,15,1.4,22.8c3.4-4,5-9.3,4.4-14.5-1.7-7.3-5.8-8.3-5.8-8.3"/>
                  <path id="Path_3770" class="st40" d="M2544,795.1s5.2,14.2,8.8,21.1c-4.8-2.1-8.5-6.2-10.3-11.1-1.7-7.3,1.5-10,1.5-10"/>
                  <path id="Path_3771" class="st30" d="M2659,821.5s-49.8,9.6-49,13.3c.9,3.7,16.1,19.4,28.4,14.6s20.5-27.9,20.5-27.9"/>
                  <path id="Path_3772" class="st8" d="M2622.6,800.1c3.4-.6,6.9-.3,10.1.8,1.7.5,2.6,2.3,2.1,4s-2.3,2.6-4,2.1c-2.5-.4-5-.5-7.6-.3-1.9-.1-3.2-1.8-3.1-3.6.1-1.4,1.1-2.6,2.5-3"/>
                  <path id="Path_3773" class="st15" d="M2568.6,777.1c1.4-1.6,3.4-2.7,5.6-3,3-.7,6.2.7,7.8,3.4.3.3.6.6.7,1,.3.7.4,1.3.5,2.1,0,.3.1.5.1.8.1.8,0,1.6-.4,2.3-.7,2.4-2.5,4.3-5,5-4,1-8.2-1.1-9.8-4.9-1.1-2.2-.9-4.7.5-6.7"/>
                  <path id="Path_3774" class="st15" d="M2659.1,766.3c-1.2-1.8-1.8-4-1.5-6.2.1-3.1,2.2-5.8,5.2-6.7.4-.2.8-.4,1.2-.4.7,0,1.4,0,2.1,0,.2,0,.5,0,.8,0,.8,0,1.6.4,2.2,1,2.2,1.2,3.6,3.5,3.6,6.1,0,4.2-3.1,7.7-7.2,8.3-2.4.5-4.8-.3-6.4-2.1"/>
                  <path id="Path_3775" class="st15" d="M2643.5,727.1c10,0,19.8,2.2,28.8,6.5,4.9,2.5,1.8,8.2-3.3,6.5-8.5-2.2-17.2-3.1-26-2.7-6.7,0-6.3-10.5.4-10.4"/>
                  <path id="Path_3776" class="st15" d="M2553.2,753.1c8.2-9.5,18.6-16.9,30.2-21.5,5.9-2.5,10.7,6.1,4.8,8.9-10.4,4.5-20,10.3-28.8,17.3-4.1,3.4-9.9,0-6.2-4.7"/>
                  <path id="Path_3777" class="st15" d="M2704.1,743.9c-1.9,1.5-3.7,2.1-5.1.8-4.9-4.6-7.3-23.4-10-26.6-2.7-3.2-9.4-7.5-14.4-12.1-4.9-6.2-9.1-13-12.4-20.3l25.1-5.3,2.8.8c6.4,20.5,11.1,41.4,14,62.7"/>
                  <path id="Path_3778" class="st15" d="M2545.3,705.1s2.3,26.5-1.9,33.2c-3.1,4-4,9.3-2.5,14.1.9,3.7,4.2,18.3,1.4,22.8-.9,1.5-3.1,1.5-5.6,1-11.7-33-20.2-62.5-20.2-62.5l21.6-17.5,7.3,8.9h0Z"/>
                  <path id="Path_3779" class="st15" d="M2485.4,700.2c1.3-1.4,2.9-2.4,4.7-2.8l11.4-4c1-.4,2.2-.9,2.4-1.9.3-1.3-1-2.4-1.9-3.4-2.6-2.7-3.2-6.8-1.5-10.1l-8-3c-1.1-.4-2.5-1-2.9-2.1-.3-.9-.2-1.8.3-2.7,2.8-4.3,6.8-7.6,11.5-9.5,4.4-2.6,8.7-7.2,7.2-12-1.1-3.5-5-6.8-3.2-10,1.6-1.9,4.2-2.6,6.5-1.6,2.2,1,4.6,1.5,7,1.6,1.6-3.6-1.5-7.6-4.6-10.1-3.1-2.6-6.7-5.7-6.1-9.7,1.3-4.1,5.6-6.4,9.7-5.1.2,0,.3.1.5.2,3.9,1.8,7.3,4.5,9.8,8.1,2.5,3.5,6,6.2,10.1,7.6,2.4.7,5-.1,6.5-2.1,1.7-2.8-.5-6.5-3-8.6s-5.6-4.2-6.2-7.5c-.3-3.6,1.8-6.9,5.2-8,3.4-1,6.9-.8,10.1.5,4.9,1.7,9.3,4.4,12.9,8.1,1.1-2.9,3.5-5.1,6.6-5.7,2.9-.9,6-1,8.8-2.1,6.6-2.5,10.3-9.5,14.3-15.3,3.3-4.9,9-9.8,14.3-7.3,5.2,2.4,5.2,9.7,4.4,15.4,5.9-4.1,13-6.2,20.2-6,1.8,0,3.6.3,5.2,1.1,3.4,1.8,4.8,6.1,2.9,9.5-1.1,2.1-3.1,3.5-5.5,3.7,5.8,2.2,10.5,6.7,12.9,12.4,4.7-2.3,8.4-6.2,12.9-8.8,4.3-3.1,10-3.4,14.7-.8,4.5,3.3,4.8,9.9,4.6,15.5,2.4-1.6,5.4-2.3,8.3-2,2.8.6,5,4.3,3.2,6.5-.6.6-1.3,1.1-2.1,1.5l-5.9,3c-2.7,1.1-5,2.9-6.7,5.3-1.5,2.4-.8,5.6,1.6,7.2.1,0,.2.1.3.2,2.6.5,5.3-.8,6.6-3.2,1.2-2.3,2.6-4.5,4.2-6.6,2.5-2.2,6-2.7,9-1.2,2.9,1.6,4.6,4.8,4.2,8.1-.4,2.9-2.2,6.3,0,8.2s5.7-.3,8.6.1c3.5.6,4.9,5,4.7,8.6-.3,6.9-3.2,13.5-8.1,18.4-2,2-5.6,3.3-7.2,5.5-2.7,3.5.7,7.2.9,10.8,0,3.8-3,7-6.8,7.4-3.8.2-7.4-1.4-9.8-4.3-1.3-1.9-3.1-3.5-5.2-4.7-3-1.1-6.2.7-9.4.4-7.1-.5-10.9-10.5-18-10.5s-3.7.8-5.6.7c-3,0-5.5-2.2-8.3-3.1-6.1-2-12.4,1.5-18.6,3.1-6.7,1.2-13.5,1.8-20.2,1.5-7.5.2-14.9,1.2-22.2,2.9-3.9.4-7.5,2.6-9.7,5.9-.7,2.3-1.2,4.8-1.3,7.2-.5,2.4-2.1,5-4.5,5-2.6,0-4.4-2.8-7-3.2-.6,0-1.1,0-1.6.2-.9.2-1.8.7-2.2,1.5-.8.9-1.3,2-1.5,3.2-.9,3.8-1,7.7-.5,11.6.1,1.6,0,3.2,0,4.7-1,1.3-2.9,1.6-4.2.6-.2-.1-.3-.3-.5-.5-.5-.7-1.3-1.1-2.1-1.2-.2-.3-.5-.7-.8-.9-3.7-3.2-7.4-.7-9.3,3-1.2,2.8-1.9,5.8-2.3,8.8-1.2,4.6-2.9,9-5.2,13.1-.5.5-1.2,1-1.9,1.2-2.7.8-5.7-.3-7.1-2.8-1.3-2.5-1.7-5.3-1-8,.3-.9.3-2,0-2.9-1.3-2.3-4.9.3-7.5-.4-2.6-.7-2.8-4.3-1.8-6.7s2.9-4.6,3-7.2c.1-3.9-3.8-6.7-7.5-7.7-3.8-.5-7.6-1.4-11.2-2.6-3.5-1.7-6-6.3-3.8-9.4"/>
                  <path id="Path_3780" class="st15" d="M2714.1,668.2c-.2.2-.4.5-.6.7-5.5,8.5-11.4-.2-16.8-3.8-3.7-2.5-8-3.8-12.4-3.7-5.4,0-11.4,2.5-16.4-.3s-6.9-10.3-10.2-14.8c-.4-.6-1-1.2-1.7-1.2-1.5,0-1.4,2.4-2.1,3.7-1.2,1.5-3.3,1.7-4.8.5-1.4-1.2-2.6-2.5-3.7-4-1.1-1.5-3-2.2-4.8-1.8.9,3,.3,6.2-1.7,8.7-2.1,2.4-5.5,3.1-8.3,1.6-1.3-.9-2.5-2.1-3.3-3.5-2.9-3.9-6.6-7.4-9.3-11.3-1.8-3.1-4.4-5.7-7.6-7.3-6.7-3.7-14.9-2.9-20.9,1.9-4,4-3.8,10.6-8.2,14-4.9,3.8-11.1,1-16.5,3.5-4.5,2-4.2,4.8-5.7,8.5-2.1,5.2-8.4,2.6-13.2,2.2-6.7-.5-14.5.2-17.3,7.4-.6,2.5-.9,5.1-.8,7.6-.9,6.2-1.1,4.5-4.8,6.5-3.1,1.5-5.5,4.2-6.6,7.5-1.9,6.2,2.9,13.7-1.8,19.2-2.3,2.9-5.9,4.6-9.6,4.6-1.4-1-2.9-1.8-4.6-2.2-3.8-.5-7.6-1.4-11.2-2.6-3.5-1.7-6-6.3-3.8-9.4,1.3-1.4,2.9-2.4,4.7-2.8l11.4-4c1-.4,2.2-.9,2.4-1.9.3-1.3-1-2.4-1.9-3.4-2.6-2.7-3.2-6.8-1.5-10.1l-8-3c-1.1-.4-2.5-1-2.9-2.1-.3-.9-.2-1.8.3-2.7,2.8-4.3,6.8-7.6,11.5-9.5,4.3-2.6,8.6-7.2,7.2-12-1.1-3.5-5-6.8-3.2-10,1.6-1.9,4.2-2.6,6.5-1.6,2.2,1,4.6,1.5,7,1.6,1.6-3.6-1.5-7.6-4.6-10.1-3.1-2.6-6.7-5.7-6.1-9.7,1.3-4.1,5.6-6.4,9.7-5.1.2,0,.3.1.5.2,3.9,1.8,7.3,4.5,9.8,8.1,2.5,3.5,6,6.2,10.1,7.6,2.4.7,5-.1,6.5-2.1,1.7-2.8-.5-6.5-3-8.6s-5.6-4.2-6.2-7.5c-.3-3.6,1.9-6.9,5.2-8,3.4-1,6.9-.8,10.2.5,4.9,1.7,9.3,4.4,12.9,8.1,1.1-2.9,3.5-5.1,6.6-5.7,2.9-.9,6-1,8.8-2.1,6.6-2.5,10.3-9.5,14.3-15.3,3.3-4.9,9-9.8,14.3-7.3,5.2,2.4,5.2,9.7,4.4,15.4,5.9-4.1,13-6.2,20.2-6,1.8,0,3.6.3,5.2,1.1,3.4,1.8,4.8,6.1,2.9,9.5-1.1,2.1-3.1,3.5-5.5,3.7,5.8,2.2,10.5,6.7,12.9,12.4,4.7-2.3,8.4-6.2,12.9-8.8,4.3-3.1,10-3.4,14.7-.8,4.5,3.3,4.8,9.9,4.6,15.5,2.4-1.6,5.4-2.3,8.3-2,2.8.6,5,4.3,3.2,6.5-.6.6-1.3,1.1-2.1,1.5-2.9,1.5-8,2.9-9.5,6-1.5,3.3,1.8,7.8,5.1,4.9.6-.6,1.1-1.3,1.5-2,2.4-4.2,7.5-6,12-4.2,2.9,1.6,4.6,4.8,4.2,8.1-.4,2.9-2.2,6.3,0,8.2s5.7-.4,8.6.1c3.5.6,4.9,5,4.7,8.6-.1,3-.8,6-1.9,8.9"/>
                  <path id="Path_3781" class="st16" d="M2744.5,2134.9c-47.5-169-140.6-608.9-146.3-612.2-5.9-3.4-152.3,458.4-201.7,604l-127.8-17.8c46.8-195.9,154.6-755.3,165.9-780.2,14.6-32.2,323.5,51,323.5,51,0,0,83.8,510.4,135.3,716.1l-148.9,39.1h0Z"/>
                  <path id="Path_3782" class="st41" d="M2568.1,1440.1c-.9-21.6,5.4-42.9,2.9-64.6-.4-2.2,1.1-4.2,3.2-4.6,2.2-.4,4.2,1.1,4.6,3.2,3.2,17.9,1,35.5.3,53.5-.4,8.9-1.5,19.9,6.1,26.2,7,4.7,14.4,8.7,22.2,12,4.1-31.5,4.8-63.3,1.9-94.9-.6-7.3,10.8-9.3,11.3-2,1.4,20.6,1.3,41.2-.2,61.8-2,21-5.4,41.8-10.4,62.3-1,4.4-8.1,3.8-7.1-.7,1.1-5.1,2-10.2,2.9-15.3-.2,0-.4,0-.6,0-9.6-2.8-18.7-7.4-26.5-13.7-6.8-5.7-10.7-14.3-10.6-23.2"/>
                  <path id="Path_3783" class="st35" d="M2765.3,950s-29.9-9.6-34.8-11.7c-3.5-1.4-7.1-2.2-10.9-2.5,0,0-14.3,11.5-63.5,2.3-49.2-9.2-79.7-30.5-81.6-33.1-1.9-2.6-1.9-2.6-5.1-3.6-9.9-.2-19.7,0-29.6.8l-89.1,437.8c19.9,15.6,44.4,24.3,69.8,24.8,43.3,1.3,61.3-6.4,104.2.9s73.9,22.7,81.6,24.2c7.7,1.6,32.4-10.2,32.4-10.2l-16.9-356.7,43.5-73.1h0Z"/>
                  <path id="Path_3784" class="st44" d="M2455.5,1320.6s2,78.4-1.9,82.1c-3.8,3.7-72.1-12.5-75-20.9-3-8.4,8.7-26.8,6.4-39.8s-4.2-32-1.8-35.3c2.4-3.4,72.3,14,72.3,14"/>
                  <path id="Path_3785" class="st6" d="M2570.4,885.6s-9.2-1.4-7.5,16.2c4.8,31.2,6.4,62.8,4.8,94.3-2.6,52.5-4.6,66.2-4.6,66.2,0,0-27.6,104.5-41.9,141.2-14.3,36.7-46.6,106.3-54.5,112.2-4.4,3-7.7,7.2-9.8,12.1-.9,2.5-1.5,5.1-1.6,7.7,0,0-44.2-14.5-55.5-19.9-5.2-3.1-11.1-4.6-17.1-4.4-2.9-7-3.2-14.9-.9-22.1,3.7-12.6,29.3-52.7,27.5-62.8-1.7-11.3-1.8-22.8-.1-34.2,1.6-7.7,26.4-52.2,26.4-52.2l-42.9-83.1s-8.1-12-5.3-21.4c3.4-8.1,4.4-17.1,2.9-25.8-4.9-22.7-4.5-46.1,1.3-68.6,7.1-27.6,26.7-50.3,53-61.4,11.3-3.5,33.2,3,33.2,3,0,0,20.3-19.9,28.5-15.4s17.9,17.6,24,18.1,16.8-5.9,24-7.2c7.2-1.3,16.2,7.5,16.2,7.5"/>
                  <path id="Path_3786" class="st44" d="M2486,884.3c3.6.9,7,2.1,10.3,3.7-1.1-1.5-2.4-2.9-3.6-4.3-1-1.3-.8-3.2.5-4.2,1-.8,2.4-.9,3.5-.2,21.4,15.1,26,44,26.5,68.3.6,30.8-.2,62-1.6,92.7-.2,5.5-8.4,4.6-8.5-.8-.2-27.6,1.1-55.2,1.4-82.8.8-16.7-1.6-33.4-7.1-49.2-.2-.1-.4-.2-.5-.4-3.7-3.1-6-7.5-9.7-10.7-3.9-3.1-8.3-5.5-13.1-7.1-1.4-.6-2-2.2-1.5-3.5.5-1.3,2-2,3.3-1.5"/>
                  <path id="Path_3787" class="st44" d="M2455.8,1313.4c13.4-51.6,18-105.8,35.6-156.2,1.8-5.1,9.2-2.2,7.7,2.8-14.8,51.2-20.7,104.9-38.8,155.1-1.1,3-5.3,1.3-4.6-1.7"/>
                  <path id="Path_3788" class="st44" d="M2496.4,1010.6c-.4-13.8-.6-27.6-1.6-41.3-.3-1.5.7-2.9,2.2-3.2,1.5-.3,2.9.7,3.2,2.2,3.6,12.8,5.7,25.9,6.3,39.1,1,13.2,3.1,26.3,4.3,39.5.3,3-1.9,5.7-4.9,6-2.7.3-5.2-1.5-5.9-4.1-2.8-12.5-4-25.4-3.6-38.2"/>
                  <path id="Path_3789" class="st6" d="M2762.1,1256c.2,1.4,5,45.2,8,53.6s13.1,15.5,9.2,26.6-35.9,15.3-35.9,15.3l-21.2-103.3,40,7.8h0Z"/>
                  <path id="Path_3790" class="st44" d="M2746.9,1346.4s30.4-12.8,32.4-10.2c1.9,2.7,6.6,37.5,9.3,44.4s14.8,16.7,12.4,20c-2.4,3.4-38.6,17.2-43.9,12.2-5.3-5-10.3-66.6-10.3-66.6"/>
                  <path id="Path_3791" class="st6" d="M2728.8,1248.7s19.4,63.3,25.1,103.9c5.7,40.6,8.1,46.1,6.1,59.8-2,13.8-4.6,24.6-9.7,21-5.1-3.6-1.5-33.9-13.2-49.7-11.7-15.7-23.1-30.1-23.8-41.9s9-41.7-7.7-77.4c-16.7-35.7,23.1-15.8,23.1-15.8"/>
                  <path id="Path_3792" class="st44" d="M2732.6,1225.8c6.9,15.9,11.8,32.6,14.7,49.7,3.6,17.6,6,35.4,8.2,53.2.3,1.7-.8,3.2-2.5,3.5-1.6.3-3.2-.8-3.5-2.5-3-16.7-5.9-33.5-9.6-50.1-3.8-17.2-9.4-33.6-14.9-50.3-1.6-4.9,5.1-8.5,7.5-3.6"/>
                  <path id="Path_3793" class="st6" d="M2717.6,1185.1c-1.3-11.7-2.5-23.4-3.6-35.2-2.1-23-3.9-46-5.5-69-.6-8.4-1.2-16.8-1.7-25.2l-21.3-6.1c1.7-14.6,5.7-28.8,11.8-42.2,10.6-24.2,45.7-52.7,58.7-55s9-16.5,22.2-17.3c10.3-.7,24.8,17.6,30.8,25.8,6.6,1.7,13.1,3.7,19.4,6,10.2,3.7,16.8,7.1,21.6,16.8,6.9,13.8,9.3,29.3,7,44.5-1.1,7.7-3.1,15.2-5.9,22.4-9.2,23.1-25.6,42.5-41.7,61.5l-12.9,15.2c-.8.9-1.5,1.9-1.9,3-.4,1.8-.3,3.6.1,5.3,1.4,11-2.1,22-9.4,30.3-7.4,8.1-16.6,14.4-26.8,18.2-4.3,1.4-8.4,3.4-12.2,6-8.9,6.8-12.5,20.5-23.3,23.4-3,.8-3.2-10.3-3.5-12.7-.7-5.2-1.3-10.5-1.9-15.8"/>
                  <path id="Path_3794" class="st44" d="M2701.9,1043.1c1.3-11.2,4.5-22.2,9.5-32.3,4.2-10.1,9.7-19.5,16.4-28.2,14.8-18,35.6-30,58.6-33.8,1.3-.2,2.5.6,2.7,1.9s-.6,2.5-1.9,2.7c-.5.1-.9.3-1.4.5,3.2.9,6.4,2,9.5,3.3,1.2.5,1.8,1.8,1.3,3-.5,1.2-1.8,1.8-2.9,1.3-3.4-1-6.8-1.6-10.3-1.9-3.1,0-6.2-.2-9.2-.8-.2,0-.4-.1-.6-.2-15.8,6.7-29.6,17.3-40.3,30.7-11.7,16.2-19.5,34.9-22.9,54.6-.3,2.3-2.4,4-4.7,3.7-2.2-.3-3.9-2.2-3.7-4.5"/>
                  <path id="Path_3795" class="st6" d="M2653.9,1240.9s-22.7,14.4-68.2-7.3c-45.4-21.7-53.6-17.3-76.4-37-22.8-19.8-18-17.6-33.1-19.4s-47-5.1-59.9-19.2-19.7-44.1-19.7-44.1l304.5,16-9,67-38.3,43.9h0Z"/>
                  <path id="Path_3796" class="st32" d="M2710.3,1256.4s29.4,25,38.7,31.5c9.3,6.5,21.9,5.4,32.5,12.8s29.2,20.4,37.3,20.2c4.7-.1,8.8-3.2,10.3-7.6,0,0,11.2,10.8,16.6,8.7,3.6-1.7,6.4-4.7,7.8-8.3,0,0,13.1,8.2,16-1.7,2.9-9.8-2.2-12.4-22.1-26.4-19.9-13.9-29.8-23.8-28.9-25.2.9-1.3,45.9,29.2,52.6,27.9,6.8-1.2,8.8-9.7,1.3-18.9s-45.2-31.6-56.7-37.7c-11.6-6.1-16.5-14.5-15.1-19.4,1.5-4.9,15.4-5.1,24-15.9,8.6-10.8,8.4-24.8,2.6-24.9s-21.5,16.6-32.5,13.9c-11-2.7-23.1,7.6-36.3,12.2-11,3.5-22.1,6.2-33.5,8.2l-15,50.4h0Z"/>
                  <path id="Path_3797" class="st43" d="M2796.6,1290.4c11.3,5.7,22,12.6,31.7,20.8,3,2.6-.2,7.5-3.6,5.1-10.4-7.3-20.2-15.1-30.8-22.1-2.5-1.7.1-5.1,2.6-3.8"/>
                  <path id="Path_3798" class="st44" d="M2688.3,1157.6s31.2,16.8,43.5,19.1c12.3,2.3,22.6,1.9,24.2,10.6,1.5,8.6-35.2,86.5-41.3,86.1s-26-20.7-38.2-23c-12.3-2.3-28.2-8.4-30.4-12.5-2.2-4,12.6-37.9,20-46.6s10.5-33.1,10.5-33.1l11.8-.6h0Z"/>
                  <path id="Path_3799" class="st6" d="M2749.4,1158.7s-46.3,15.6-69.7,9.3c-18-5.4-37-6.1-55.4-2.1-18.7,3.3-68,10.5-107.6-3.3-22-7.4-43.2-17.1-63.1-29l3.6-80.9s15.8-11.7,23.5-10.1c7.7,1.6,9,8.8,11.6,6.9,2.6-1.9,54-14,62.2-9.5,4.5,2.2,8.2,5.7,10.7,10,0,0,57.6-10.2,79.1-6.5,21.4,3.6,37-9.5,46.4-6.7,3.5,1.3,7.1,2.2,10.9,2.5,0,0,31.9-13.1,42.2-13.4s32.7.2,41.2,6.1c8.5,5.9-35.6,126.7-35.6,126.7"/>
                  <path id="Path_3800" class="st32" d="M2406.6,1068.1c-6-3.8-11.3-8.4-15.8-13.9-7.1-8.7-16.3-10.4-24.4-12.3-8.5-1.2-16.7-4.3-23.8-9.1-6.5-5.5-7.5-10.9-12-11.2s-11.8,8.7-5,22,22.6,14.9,21.4,20.6-85.8,36.2-86.2,46.3c-.4,10.1,9.4,9.4,13.6,7.6,4.1-1.8,47.2-21.7,48-17.4s-48.1,22.9-51.5,29.1c-3.4,6.2.1,13.3,10.9,11.4-.6,3.5,1.4,6.9,4.8,8,6,2.3,19.6-2.3,19.6-2.3,0,0-.1,5.6,8,7.5,8.1,1.9,40.1-11.5,48.9-12s21.9-8.3,27.9-11.6c4.8-2.8,9.5-5.8,13.9-9.1l1.6-53.6h0Z"/>
                  <path id="Path_3801" class="st43" d="M2298.7,1142.2c4.4-3,9.2-5.3,14.3-7,5.7-1.2,11.3-3.2,16.5-5.9,1.2-.7,2.7,1,1.8,2.1-7.7,8.7-20,8.8-29.7,13.7-2,1-4.8-1.7-2.8-3"/>
                  <path id="Path_3802" class="st44" d="M2463,1051.7s-3.8,28.9-4.6,49.9,2.2,29.3-1.6,33c-6.8,5.3-15.4,7.9-24,7.2-7.7-1.6-11.9-8.3-21.7-5.1-9.8,3.2-17.4,10.5-21.6,3.8-4.2-6.7-7.8-35.8-5.2-63,2.6-27.2,10.5-33.1,16.5-32.6,6,.4,18.1,10.2,26.8,8.7,8.6-1.5,33.1-5.9,35.4-1.8"/>
                  <path id="Path_3803" class="st44" d="M2712,1167.2c12-1.9,23.8-5.3,35-10,1-.4,2.2,0,2.6,1,.4,1,0,2.1-.9,2.6-10.9,6.7-22.8,11.7-35.3,14.8-5.3,1.4-7-7.6-1.5-8.4"/>
                  <path id="Path_3804" class="st44" d="M2689.2,1033.7c7.1-2,14.7-1.2,21.3,2.1.1,0,.2-.2.4-.3,18.5-9.6,45.4-20.7,65-7.6,1.7,1.1.7,4.4-1.4,3.9-9.4-2.5-19.2-3-28.8-1.5-9.2,2-18.1,5.4-26.4,10.1,2.2,1.4,4.3,2.9,6.3,4.6,1.9,1.6.4,5.4-2.2,4.2-5.1-2.4-10.3-4.5-15.6-6.3-5.8-1.8-11.6-1.3-17.4-2.5-2.9-.6-4.8-5.4-1.2-6.7"/>
                  <path id="Path_3805" class="st44" d="M2460,1043.3c6.3-6,15.3-8.3,23.7-6,3.5,1.1,6.4,4.8,9.7,5.4,2.8-.5,5.6-1.5,8.1-2.8,2.7-.9,5.5-1.7,8.2-2.5,11.1-3.6,22.7-5.4,34.4-5.2,8.7.6,16.4,5.7,20.4,13.5.6,1.6.7,2.6-1.2,1.7-3.7-1.8-7.1-5.5-11.2-6.7-4.9-1.1-10.1-1.3-15.1-.6-9.2,1.1-18.3,3-27.2,5.6-4.8,1.4-9.5,3.1-14.3,4.7-2,1.1-4.3,1.2-6.4.3-3.1-1.6-4.4-4.9-8.2-5.9-6.1-1.1-12.3.8-16.8,5.1-4,3.2-8.1-3.3-4.1-6.6"/>
                </g>
              </g>
            </g>
          </g>
        </g>
      </g>
      <g>
        <g>
          <g>
            <g>
              <path class="st12" d="M958.9,1624.4c26.2-4.2,36.2,17.4,35.7,48.9-.3,17.4,13.4,40.5,4,57.1-6.2,10.9-18.6,21.7-41,19l-56.1-6.5c-45.5-4.7-27.4-47-18.5-69.8,4.3-10.8-3-40.7,21.5-55,14.9-8.8,43.2-12.9,54.5,6.2h0Z"/>
              <path class="st13" d="M895.9,1690.8c0,1,.2,2,.3,3,.1,1.2.3,2.3.5,3.5,1.5,8.1,4.9,16.2,12.1,21.6.2.2.4.3.6.5,4.9,3.4,12.7,6.1,23.6,3.7l-22.7,7.8-1.6,11.1s26.5,12.3,46.6-2.8l-2.4-26c1.8-2.9,4-8.4,4.4-10.2,4.6,1.6,9.4-2.7,11.3-10.4,2.5-10.3-3.4-13.8-7.7-10.5-.9.7-1.6,1.2-2.2,1.8-1,.9-2,1.3-2.8,1.2-1.2,0-1.6-1.3-1.8-3.9-2.3-28.5-15-35.4-25.3-38.6-19.7-6-30,10.8-30.8,23.4-.5,7.7-1.9,13.3-2,15.5,0,1.2-.1,2.4-.1,3.7,0,1.8,0,3.7.2,5.6h0Z"/>
              <path class="st11" d="M931.8,1677.4c-.2,2.1,1.1,3.9,2.8,4.1,1.8.2,3.4-1.3,3.6-3.4.2-2.1-1.1-3.9-2.8-4.1-1.8-.2-3.4,1.3-3.6,3.4Z"/>
              <path class="st11" d="M918.4,1692.2c-1.5-.2-2.8-.9-3.7-2-1-1.2-1.2-2.6-.7-3.9,1-2.4,1.9-4.7,2.6-6.7.4-.9,1.7-.4,1.3.5-.7,1.9-1.6,4.2-2.6,6.7-.3.8-.2,1.7.5,2.5.8,1,2.7,2,5.3,1.5.4,0,.7.2.8.5,0,.4-.2.7-.5.8-1,.2-2,.2-2.9,0h0Z"/>
              <path class="st17" d="M926.3,1697.8c1.2-.2-1.3,7.1-8.2,6.3-6.9-.8-7.7-8.9-6.1-7.9,3,2.5,9.7,3.6,14.2,1.6Z"/>
              <path class="st11" d="M934.1,1675.5c-.1,0-.2-.2-.3-.3-.2-.3,0-.8.3-1,.2-.1,2-1,5.2,1.1.3.2.4.7.2,1-.2.3-.7.4-1,.2-2.4-1.6-3.6-1.1-3.6-1.1-.2.1-.5,0-.7,0h0Z"/>
              <path class="st11" d="M909.8,1675.8c0,2.1-1.5,3.7-3.3,3.7-1.8,0-3.2-1.8-3.2-3.9,0-2.1,1.5-3.7,3.3-3.7,1.8,0,3.2,1.8,3.2,3.9Z"/>
              <path class="st11" d="M907.7,1673.5c.1,0,.3-.1.3-.3.2-.3.2-.8-.2-1-.2-.1-1.9-1.3-5.3.5-.4.2-.5.6-.3,1s.6.5,1,.3c2.5-1.3,3.7-.6,3.7-.6.2.1.5.2.7,0h0Z"/>
              <path class="st11" d="M959.1,1704.7c-1.7,0-2.9-.6-3.8-1.9-.2-.3-.1-.7.2-.9.3-.2.7-.1.9.2.8,1.3,2.1,1.6,4.2,1.2.4,0,.7.2.8.5s-.2.7-.5.8c-.6.1-1.2.2-1.8.2h0Z"/>
              <path class="st11" d="M944.3,1670.1c.3,0,.6-.2.7-.4.2-.4,0-.8-.4-.9-.4-.2-4.2-1.8-5.2-2-3.2-.7-8.5-1-8.8-1.1-.4,0-.7.3-.8.7s.3.7.7.8c0,0,5.5.4,8.6,1,.7.2,3.4,1.2,5,1.9,0,0,.2,0,.2,0h0Z"/>
              <path class="st11" d="M900,1666.6c0,0,.2,0,.2,0,0,0,2.5-.7,3.9-.9,2.3-.3,8.4,0,8.5,0,.4,0,.7-.3.8-.7,0-.4-.3-.7-.7-.8h0c-.3,0-6.3-.3-8.7,0-1.5.2-4,.9-4.1.9-.4.1-.6.5-.5.9,0,.3.3.5.7.5h0Z"/>
            </g>
            <g>
              <g>
                <path class="st29" d="M1033.7,2056.1l-133.4-7.8c-44.4-2.3-69.3-17.3-57.8-80.2,1.6-8.9,3.2-17.7,4.6-25.9.2-1.1.4-2.1.5-3.2.8-4.6,1.5-9,2.2-13.1,2.8-16.6,4.5-28.1,4.5-28.1,37.5-3,79.2-12.5,116.3-15.4l21.9,7.4,9.7,64.5c.4.2.8.5,1.3.7,20.3,9.7,30.2,100.9,30.2,100.9h0Z"/>
                <g>
                  <path class="st13" d="M1139.5,2237.3c0-.2,0-1.2-.3-2.9h0s-.3-2-.8-5.6c0-.6-.2-1.2-.3-1.8-.5-3.4-1.2-7.9-1.9-13.1-6.7-45.6-22.1-151.2-22.1-151.2l46.2-1.5s8.6,122.2,11.3,159.4c0,.3,0,.5,0,.8,0,.3,0,.5,0,.8.4,5.7.6,9,.7,9.1.3,2.4.5,3.3,1.9,4.2,0,0,.2.1.3.2,1.5.8,3.4,1.7,5.6,2.7h0c5.5,8.1-41.4,2.3-40.6-1h0Z"/>
                  <path class="st11" d="M1144.4,2264.1s57.3,2.9,74.1,3.8c5.5.3,10.8-8.5.2-13.1-6.4-2.8-35.8-15.2-38.6-16.5q-1.9-.9,0,0c-.4-.4-41-3.9-41-4h0c0,0-3.5,11.9-4.7,15.8-1.8,6.2,1.7,13.5,10,13.9h0Z"/>
                  <path class="st11" d="M1173.5,2220.9l-1.9.4-33.3,7.4c0-.6-.2-1.2-.3-1.8-.5-3.4-1.2-7.9-1.9-13.1l35.4,6.8h0l1.9.4h0Z"/>
                </g>
                <g>
                  <path class="st29" d="M1135,2043.3l-54.4,4.5-20.5-1.2-13.9.5-90.6,3.9,30.3-108.6s121,23.7,154.6,31.2c17,3.8-5.5,69.6-5.5,69.6h0Z"/>
                  <path class="st29" d="M1172.8,2014.4c-3.2-24-16.7-41.1-41.7-41.7-7.2-.2-28.8-.7-28.8-.7-23.7,5.8-29.7,40.8-29.7,40.8l43.1,206.2c.6,0,80.8,4.2,80.8,4.2,0,0-21.1-189-23.8-208.7h0Z"/>
                </g>
                <g>
                  <polygon class="st9" points="1059.9 2046.6 1046.2 2047.2 1056.5 2003.4 1059.9 2046.6"/>
                  <g>
                    <path class="st13" d="M986.1,2227.8c5.5,8.1-41.4,2.3-40.6-1,0-.2,0-1.2-.3-2.9h0s.2-1.8.5-5c0-.6.1-1.2.2-1.8.4-3.4.8-7.9,1.4-13.3,4.6-43.5,15.1-142.7,15.1-142.7l51.7-6.1s-25.7,118.7-33.6,155.1c-.1.5-.2,1-.3,1.5-1.2,5.7-1.9,9-1.9,9.1-.5,2.2.5,3.3,1.9,4.2,0,0,.2.1.3.2,1.5.8,3.4,1.7,5.6,2.7h0Z"/>
                    <path class="st11" d="M949.9,2253.6s57.8,3,74.6,3.8c5.5.3,10.8-8.5.2-13.1-6.5-2.8-35.8-15.2-38.6-16.5q-1.9-.9,0,0c-.4-.4-41-3.9-41-4h0c0,0-2.8,8.2-4.6,13.9-2.9,9.6.7,15.4,9.4,15.9h0Z"/>
                    <path class="st11" d="M980.5,2210.2c-.1.5-.2,1-.3,1.5l-34.6,7.2c0-.6.1-1.2.2-1.8.4-3.4.8-7.9,1.4-13.3l33.3,6.4Z"/>
                  </g>
                  <path class="st29" d="M1057.5,2011.3c.1-1.4.2-2.8,0-4.1-.6-24.8-22.1-49.1-56.5-40.1l5.6,20.3c-24.4,1.9-48.3,8.5-48.3,8.5l-34.2,213.2c.6,0,79.3,4.1,79.3,4.1,0,0,34.5-141.4,53.4-197.4.3-1.5.4-3,.6-4.5h0Z"/>
                </g>
              </g>
              <path class="st34" d="M1139,1834.9c11.1,0,17.6,44.6,9.7,47.6-18.5,7-17.1-33.8-9.7-47.6Z"/>
              <path class="st13" d="M1064.6,1845.7s50.5-7.5,65.7-9.9c5.3-.8,10.8-2.1,12.3-2.7.3-.1,9.9-11.1,14.2-13.5,4.5-2.5,12.2-3.4,18.8-6,3.6-1.4,5.1-1.1,5.6.2.7,1.8-1,4.7-3.2,6-2.6,1.6-6,3.4-8.6,4.8-1.5.8-2.6,1.9-3.1,2.8l31.8-8.4c3.5-.6,5.5.4,5.8,1.9.3,1.4-.5,3.7-3.1,4.5-5.8,1.8-17.5,5-17.1,5.8,0,.1-.4,0-.2-.1,3.7-.8,23.7-4.4,23.7-4.4,2.9-.3,4.6.9,4.7,2.4.2,1.8-1.2,3.3-3.2,3.9-2.3.7-20.4,4-23.2,5.4-.3.1-.8,0-.5,0,3.1.3,22.2-2.5,22.2-2.5,3.5-.6,4.6.8,4.8,2.2.2,1.4-1.5,3.4-4.3,4-6.4,1.5-22.5,3.3-22.4,4,0,.1.1-.3.4-.3,2,.5,10.8-1.3,14.4-1.8,2.7-.4,4.7,1,5,2.5.2,1.4-1.1,3-3.8,3.6-4.8,1.1-11.5,3.2-15.9,4.2-1.6.4-2.9,1.4-4.4,2.1-13.7,6-24.1,5.7-33.3,6-2.7,0-49.2,17.5-72.6,22.9-11.9,2.8-24.6-34.9-10.5-39.7h0Z"/>
              <path class="st11" d="M1153.4,1843.6c0,.3.4.6.7.6,0,0,9.1-1,11.2-10.6,0-.4-.2-.7-.5-.8-.4,0-.7.2-.8.5-1.8,8.6-9.9,9.5-10,9.5-.4,0-.7.4-.6.8h0Z"/>
              <path class="st11" d="M1143.8,1855.5c1.3,2.8,3.4,4.2,3.5,4.3.3.2.7.1.9-.2.2-.3.1-.7-.2-.9h0c-.2,0-3.9-2.6-3.8-7.9,0-.4-.3-.7-.7-.7-.4,0-.7.3-.7.7,0,1.9.4,3.5,1,4.8h0Z"/>
              <path class="st48" d="M1148.7,1882.5c-1.4.5-89.6,31.3-118.3,34.7-6,.7-12.5,1.2-18.3-.3-.3,0-.7-.2-1-.3-2.4-.7-8.3-3-14.2-5.8-7.1-3.3-14.5-7.4-16.5-10.3,0-.2-152.5-6.4-152.5-6.4,0-.1-31.9-95.9-31.9-95.9,0,0,21.3-23.3,39.5-40.7,18.7-17.9,39.4-30,78-27.4,14.5,8.2,27.8,7.5,40.8,1.7,35.1,4.6,61.9,12.8,76.5,49.4,6.8,17.1,18.9,64.7,19,65l89.9-12.3c-13.3,1.9-3.6,50.2,9.1,48.5h0Z"/>
              <path class="st48" d="M998.9,1823.3l2.8,113.7c-49.3,2.3-103.2-1.1-160.2-8.2l34.6-114.2,122.8,8.8h0Z"/>
            </g>
          </g>
          <g>
            <g>
              <rect class="st28" x="640.4" y="1649.3" width="249.6" height="450.6" rx="47.9" ry="47.9" transform="translate(-145.7 66.3) rotate(-4.5)"/>
              <path class="st14" d="M729.6,1664.5l37.7-3c3.9-.3,7.4,2.6,7.7,6.5h0c.3,3.9-2.6,7.4-6.5,7.7l-37.7,3c-3.9.3-7.4-2.6-7.7-6.5h0c-.3-3.9,2.6-7.4,6.5-7.7Z"/>
              <rect class="st31" x="654.9" y="1689" width="220.4" height="368.4" rx="8" ry="8" transform="translate(-145.6 66.3) rotate(-4.5)"/>
              <g class="st38">
                <circle class="st33" cx="767.2" cy="1668.5" r="5.7"/>
                <circle class="st27" cx="767.3" cy="1668.4" r="4.3"/>
                <circle class="st14" cx="767.4" cy="1668.3" r="3"/>
              </g>
            </g>
            <g>
              <circle class="st4" cx="764" cy="1856.2" r="90.6" transform="translate(-1088.8 1083.9) rotate(-45)"/>
              <g class="st25">
                <g>
                  <g>
                    <ellipse class="st30" cx="772.4" cy="1947.7" rx="45.7" ry="47.5" transform="translate(-149.1 66) rotate(-4.5)"/>
                    <ellipse class="st39" cx="772.6" cy="1949.9" rx="31.7" ry="54.2" transform="translate(-149.3 66) rotate(-4.5)"/>
                  </g>
                  <ellipse class="st36" cx="768.7" cy="1900.3" rx="22.9" ry="8.8" transform="translate(-145.4 65.5) rotate(-4.5)"/>
                  <rect class="st39" x="711.8" y="1811.8" width="3.7" height="42.2" transform="translate(-140.4 61) rotate(-4.5)"/>
                  <rect class="st39" x="810.9" y="1804" width="3.7" height="42.2" transform="translate(-139.5 68.7) rotate(-4.5)"/>
                  <g>
                    <circle class="st36" cx="720.6" cy="1862.4" r="14.8"/>
                    <circle class="st36" cx="810.3" cy="1855.4" r="14.8"/>
                  </g>
                  <path class="st36" d="M761.3,1817.5c-26.5,2.5-45.7,26.3-43.7,52.8l1.6,20.6c.6,7.3,7,12.8,14.3,12.2l70.2-5.5c7.3-.6,12.8-6.9,12.2-14.3l-1.7-21.4c-2.1-27-25.9-47.1-52.9-44.5h0Z"/>
                  <path class="st39" d="M760.9,1812.3c-26.5,2.5-45.7,26.3-43.7,52.8l1.9,23.9c.4,5.5,5.2,9.6,10.7,9.1l76.9-6c5.5-.4,9.5-5.2,9.1-10.7l-1.9-24.7c-2.1-27-25.9-47.1-52.9-44.5h0Z"/>
                  <path class="st36" d="M761.8,1821.2c-20.6,1.9-35.5,20.7-33.9,41.5l1.5,18.8c.3,4.3,4,7.5,8.3,7.2l59.8-4.7c4.2-.3,7.4-4.1,7.1-8.4l-1.5-19.4c-1.7-21.2-20.2-37-41.2-35h0Z"/>
                  <path class="st16" d="M762,1824.3c-20.6,1.9-35.5,20.7-33.9,41.5l1.2,15.7c.3,4.3,4,7.5,8.3,7.2l59.8-4.7c4.2-.3,7.4-4.1,7.1-8.4l-1.3-16.3c-1.7-21.2-20.2-37-41.2-35Z"/>
                  <g>
                    <circle class="st4" cx="748.2" cy="1852.8" r="4.5"/>
                    <circle class="st4" cx="781.4" cy="1850.3" r="4.5"/>
                  </g>
                  <path class="st4" d="M766.6,1875.1c6.3-.5,11.2-5.7,11.3-11.9,0-.7-.6-1.3-1.3-1.3l-22,1.7c-.7,0-1.2.7-1.1,1.4,1.2,6.1,6.7,10.5,13,10h0Z"/>
                  <circle class="st36" cx="711.6" cy="1809.4" r="5.2"/>
                  <circle class="st36" cx="810.8" cy="1801.6" r="5.2"/>
                </g>
              </g>
            </g>
          </g>
          <g>
            <path class="st13" d="M653.6,1778.3c-.4,1-1.6,1.8-2.8,1.8,1.9.6,3.4,2.7,2.8,4.3-.7,1.9-2.9,2.4-4.8,2-5.6-1.1-13-3.3-13.1-3.1-.5.2,10.6,4.4,12.4,5.4,1.5.9,2.2,2.8,1.6,4.2-.6,1.4-2.8,1.8-5.5,1.1-3.5-.8-12.6-5-15-6.5-2.3-1.5-6.4-4.2-7.5-7.2-1.8-5.1-3.1-18-.7-24.5,1.4-3.9,6.2-2.2,13,2.2,0,0,9,4.4,12.8,7.1,1.2.8,2.7,2.6,2.4,4.4-.2,1.1-1.2,1.9-2.2,2.1,0,0,2.7.9,4.3,1.9,1.6.9,2.8,2.9,2.2,4.7h0Z"/>
            <path class="st11" d="M633.9,1775.4c.2,0,.3,0,.5,0,5.9,2,12.3,3.3,12.4,3.3.4,0,.6.4.5.8s-.5.6-.8.6c0,0-6.6-1.3-12.5-3.4-.4-.1-.6-.5-.4-.9,0-.2.2-.3.4-.4h0Z"/>
            <path class="st11" d="M632.4,1767.2c.2,0,.4,0,.5,0,4.9,1.8,12,3.5,12.1,3.5.4,0,.6.5.5.8,0,.4-.5.6-.8.5,0,0-7.3-1.7-12.3-3.6-.4-.1-.5-.5-.4-.9,0-.2.2-.3.4-.4Z"/>
          </g>
          <g>
            <path class="st7" d="M1259.3,1444.1l-155.8-7.6c-58.1-2.8-107.5,42-110.3,100.1h0c-2.1,42.7,21.6,80.6,57.3,98.9l-3.5,5.8-18.7,31.3,32.9-15.5,23.3-11c2.8.4,5.7.7,8.6.8l155.8,7.6c58.1,2.8,107.5-42,110.3-100.1h0c2.8-58.1-42-107.5-100.1-110.3h0Z"/>
            <g>
              <circle class="st12" cx="1088.2" cy="1542" r="23.3"/>
              <circle class="st12" cx="1176.2" cy="1546.2" r="23.3"/>
              <circle class="st12" cx="1264.3" cy="1550.6" r="23.3"/>
            </g>
          </g>
        </g>
        <g>
          <path class="st5" d="M522.9,1538.5l141.7-1c52.8-.4,96,42.2,96.3,95h0c.3,38.8-22.7,72.4-55.8,87.6l2.9,5.4,15.7,29.1-29.3-15.3-20.8-10.9c-2.6.2-5.2.4-7.8.4l-141.7,1c-52.8.4-96-42.2-96.3-95h0c-.4-52.8,42.2-96,95-96.3h0Z"/>
          <g>
            <circle class="st12" cx="674.5" cy="1633.9" r="21.1"/>
            <circle class="st12" cx="594.5" cy="1634.4" r="21.1"/>
            <circle class="st12" cx="514.3" cy="1634.9" r="21.1"/>
          </g>
        </g>
      </g>
    </g>
  </g>
</svg>